<?xml version="1.0" encoding="UTF-8" standalone="no"?>
<!-- Created with Inkscape (http://www.inkscape.org/) -->

<svg
   xmlns:dc="http://purl.org/dc/elements/1.1/"
   xmlns:cc="http://creativecommons.org/ns#"
   xmlns:rdf="http://www.w3.org/1999/02/22-rdf-syntax-ns#"
   xmlns:svg="http://www.w3.org/2000/svg"
   xmlns="http://www.w3.org/2000/svg"
   xmlns:sodipodi="http://sodipodi.sourceforge.net/DTD/sodipodi-0.dtd"
   xmlns:inkscape="http://www.inkscape.org/namespaces/inkscape"
   width="499.99997"
   height="88.994064"
   id="svg3914"
   version="1.1"
   inkscape:version="0.48.4 r9939"
   sodipodi:docname="Новый документ 3">
  <defs
     id="defs3916">
    <clipPath
       clipPathUnits="userSpaceOnUse"
       id="clipPath662">
      <path
         inkscape:connector-curvature="0"
         d="m 201.32,74.55 -89.31,0 0,431.18 89.31,0 0,-431.18 z"
         clip-rule="evenodd"
         id="path664" />
    </clipPath>
    <clipPath
       clipPathUnits="userSpaceOnUse"
       id="clipPath668">
      <path
         inkscape:connector-curvature="0"
         d="m 843,-1 -844,0 0,597 844,0 0,-597 z M -1,-1 z"
         id="path670" />
    </clipPath>
    <clipPath
       clipPathUnits="userSpaceOnUse"
       id="clipPath674">
      <path
         inkscape:connector-curvature="0"
         d="M 0.029999,595.02 841.05,595.02 841.05,0 0.029999,0 l 0,595.02 z"
         id="path676" />
    </clipPath>
  </defs>
  <sodipodi:namedview
     id="base"
     pagecolor="#ffffff"
     bordercolor="#666666"
     borderopacity="1.0"
     inkscape:pageopacity="0.0"
     inkscape:pageshadow="2"
     inkscape:zoom="0.5"
     inkscape:cx="284.33177"
     inkscape:cy="28.323189"
     inkscape:document-units="px"
     inkscape:current-layer="layer1"
     showgrid="false"
     showguides="true"
     inkscape:guide-bbox="true"
     inkscape:snap-bbox="true"
     inkscape:bbox-paths="true"
     inkscape:bbox-nodes="true"
     inkscape:snap-bbox-edge-midpoints="true"
     inkscape:snap-bbox-midpoints="true"
     fit-margin-top="0"
     fit-margin-left="0"
     fit-margin-right="0"
     fit-margin-bottom="0"
     inkscape:window-width="1600"
     inkscape:window-height="838"
     inkscape:window-x="-8"
     inkscape:window-y="-8"
     inkscape:window-maximized="1">
    <sodipodi:guide
       orientation="1,0"
       position="8.866e-006,140.69008"
       id="guide4089" />
    <sodipodi:guide
       orientation="1,0"
       position="500.00001,393.71578"
       id="guide4091" />
  </sodipodi:namedview>
  <metadata
     id="metadata3919">
    <rdf:RDF>
      <cc:Work
         rdf:about="">
        <dc:format>image/svg+xml</dc:format>
        <dc:type
           rdf:resource="http://purl.org/dc/dcmitype/StillImage" />
        <dc:title></dc:title>
      </cc:Work>
    </rdf:RDF>
  </metadata>
  <g
     inkscape:label="Layer 1"
     inkscape:groupmode="layer"
     id="layer1"
     transform="translate(8.866e-6,-487.86515)">
    <g
       transform="matrix(0,1.310162,1.310162,0,-144.127,335.53654)"
       id="g660"
       clip-path="url(#clipPath662)">
      <g
         id="g666"
         clip-path="url(#clipPath668)">
        <g
           id="g672"
           clip-path="url(#clipPath674)">
          <g
             id="g678"
             transform="translate(141.074,447.254)">
            <path
               inkscape:connector-curvature="0"
               d="m 0,0 c -0.069,0.998 -0.212,1.926 -0.212,2.78 0,3.567 0.57,6.134 4.561,5.063 4.635,-1.212 5.847,-5.49 5.847,-9.339 l 0,-1.211 L 0,0 z m 15.472,-8.055 c 3.421,-0.854 7.911,-2.065 11.047,-4.348 0,2.996 0.145,5.919 0.145,8.84 0,5.989 -1.998,11.834 -8.911,13.614 -4.778,1.284 -6.415,-1.852 -7.344,-5.631 l -0.071,0 c -1.283,3.492 -3.136,6.99 -6.987,7.987 -3.778,0.994 -5.275,-1.714 -5.275,-5.136 0,-3.849 0.429,-7.91 0.429,-11.833 1.495,0.641 3.778,0 5.773,-0.496 l 11.194,-2.997 z m -3.709,4.919 0,0.784 c 0,4.989 0.712,9.269 6.701,7.628 4.705,-1.212 6.489,-4.417 6.489,-8.91 0,-2.924 -1.141,-2.638 -6.203,-1.284 l -6.987,1.782"
               style="fill:#77787b;fill-opacity:1;fill-rule:evenodd;stroke:none"
               id="path680" />
          </g>
          <g
             id="g682"
             transform="translate(154.263,251.223)">
            <path
               inkscape:connector-curvature="0"
               d="m 0,0 c 6.272,-1.64 12.049,-5.918 12.049,-12.333 0,-7.197 -7.628,-7.197 -13.402,-5.631 -6.275,1.641 -12.12,5.917 -12.12,12.334 0,7.199 7.628,7.127 13.473,5.63 z m -1.283,4.991 c -7.77,1.996 -14.114,-0.429 -14.114,-9.768 0,-9.266 6.985,-15.967 15.255,-18.177 7.841,-2.067 14.116,0.355 14.116,9.767 0,9.195 -6.916,15.968 -15.257,18.178"
               style="fill:#77787b;fill-opacity:1;fill-rule:evenodd;stroke:none"
               id="path684" />
          </g>
          <g
             id="g686"
             transform="translate(139.579,293.566)">
            <path
               inkscape:connector-curvature="0"
               d="m 0,0 c 1.71,-1.495 4.063,-1.995 6.273,-2.565 5.205,-1.355 10.694,-3.065 15.968,-3.85 1.995,-0.285 3.992,-0.641 5.773,-0.143 l 0,-6.559 c -2.208,1.426 -5.489,2.282 -7.912,2.923 L 5.559,-6.345 c -0.427,0.071 -0.998,0.214 -0.998,-0.07 0,-0.359 0.356,-0.571 0.643,-0.786 L 28.443,-23.24 6.913,-26.018 c -1.282,-0.143 -2.352,-0.216 -2.352,-0.642 0,-0.357 0.785,-0.572 1.426,-0.784 l 14.258,-3.779 c 3.422,-0.928 6.274,-1.639 7.769,-1.069 l 0,-5.275 -0.639,0.57 c -2.282,2.208 -9.197,4.278 -13.974,5.489 L 2.495,-28.584 C 1.283,-28.3 0.641,-28.157 0,-29.084 l 0,5.56 c 0,0.501 0.071,1.14 0.641,1.14 l 19.176,1.567 c 0.642,0.074 1.354,0 1.354,0.36 0,0.427 -0.427,0.639 -1.069,1.068 L 1.853,-6.843 C 0.926,-6.202 0,-5.704 0,-4.564 L 0,0"
               style="fill:#77787b;fill-opacity:1;fill-rule:evenodd;stroke:none"
               id="path688" />
          </g>
          <g
             id="g690"
             transform="translate(154.263,316.804)">
            <path
               inkscape:connector-curvature="0"
               d="m 0,0 c 6.272,-1.638 12.049,-5.916 12.049,-12.333 0,-7.2 -7.628,-7.126 -13.402,-5.631 -6.275,1.641 -12.12,5.917 -12.12,12.333 0,7.199 7.628,7.199 13.473,5.631 z m -1.283,4.991 c -7.77,2.067 -14.114,-0.357 -14.114,-9.768 0,-9.195 6.985,-15.967 15.255,-18.175 7.841,-1.996 14.116,0.425 14.116,9.764 0,9.27 -6.916,15.968 -15.257,18.179"
               style="fill:#77787b;fill-opacity:1;fill-rule:evenodd;stroke:none"
               id="path692" />
          </g>
          <g
             id="g694"
             transform="translate(165.812,357.364)">
            <path
               inkscape:connector-curvature="0"
               d="m 0,0 0,5.132 c 0,2.78 -0.643,5.777 -2.494,8.343 L 1.497,11.622 C 1.639,10.409 1.78,8.913 1.78,7.345 l 0,-12.903 c -1.494,1.355 -3.777,2.138 -5.772,2.639 l -16.469,4.347 c -1.995,0.499 -4.277,1.141 -5.772,0.569 l 0,15.468 3.422,-0.714 c -1.357,-1.21 -1.642,-3.491 -1.642,-6.128 l 0,-4.133 10.481,-2.78 c 0,3.422 0,7.056 -0.357,10.548 2.565,-2.209 2.565,-7.271 2.565,-9.981 l 0,-1.137 L 0,0"
               style="fill:#77787b;fill-opacity:1;fill-rule:evenodd;stroke:none"
               id="path696" />
          </g>
          <g
             id="g698"
             transform="translate(154.263,429.151)">
            <path
               inkscape:connector-curvature="0"
               d="m 0,0 c 6.272,-1.641 12.049,-5.918 12.049,-12.334 0,-7.129 -7.628,-7.129 -13.402,-5.631 -6.275,1.641 -12.12,5.987 -12.12,12.332 0,7.199 7.628,7.199 13.473,5.633 z m -1.283,4.986 c -7.77,2.07 -14.114,-0.353 -14.114,-9.694 0,-9.267 6.985,-16.037 15.255,-18.175 7.841,-2.066 14.116,0.356 14.116,9.693 0,9.267 -6.916,15.97 -15.257,18.176"
               style="fill:#77787b;fill-opacity:1;fill-rule:evenodd;stroke:none"
               id="path700" />
          </g>
          <g
             id="g702"
             transform="translate(154.263,486.032)">
            <path
               inkscape:connector-curvature="0"
               d="m 0,0 c 6.272,-1.638 12.049,-5.985 12.049,-12.33 0,-7.2 -7.628,-7.2 -13.402,-5.633 -6.275,1.641 -12.12,5.919 -12.12,12.333 0,7.128 7.628,7.128 13.473,5.63 z m -1.283,4.92 c -7.77,2.068 -14.114,-0.354 -14.114,-9.693 0,-9.267 6.985,-15.968 15.255,-18.178 7.841,-2.068 14.116,0.357 14.116,9.695 0,9.267 -6.916,16.037 -15.257,18.176"
               style="fill:#77787b;fill-opacity:1;fill-rule:evenodd;stroke:none"
               id="path704" />
          </g>
          <g
             id="g706"
             transform="translate(165.74,346.745)">
            <path
               inkscape:connector-curvature="0"
               d="m 0,0 c -8.055,-2.282 -17.464,-2.637 -26.09,-3.136 l 0,-5.274 1.211,-0.361 C -21.456,-9.696 -4.419,-22.456 0,-26.591 l 0,-1.637 2.924,-0.784 c -0.999,1.995 -0.999,4.062 -0.999,5.984 l 0,18.748 c 0,1.998 0,3.994 0.999,5.492 L 0,1.994 0,0 z m -10.407,-15.969 -11.121,7.559 c -0.214,0.21 -1.07,0.64 -1.07,1.067 0,0.428 0.784,0.499 1.07,0.499 0,0 6.416,0.356 10.549,0.855 2.996,0.354 8.27,1.068 10.979,1.427 l 0,-18.037 c -2.495,0.787 -6.629,3.781 -10.407,6.63"
               style="fill:#77787b;fill-opacity:1;fill-rule:evenodd;stroke:none"
               id="path708" />
          </g>
          <g
             id="g710"
             transform="translate(165.74,400.847)">
            <path
               inkscape:connector-curvature="0"
               d="m 0,0 c -8.055,-2.277 -17.464,-2.636 -26.09,-3.205 l 0,-5.203 1.211,-0.36 C -21.456,-9.694 -4.419,-22.453 0,-26.588 l 0,-1.638 2.924,-0.785 c -0.999,1.995 -0.999,4.063 -0.999,5.987 l 0,18.751 c 0,1.996 0,3.989 0.999,5.487 L 0,1.998 0,0 z m -10.407,-15.964 -11.121,7.556 c -0.214,0.143 -1.07,0.643 -1.07,1.068 0,0.428 0.784,0.428 1.07,0.499 0,0 6.416,0.356 10.549,0.855 2.996,0.356 8.27,1.069 10.979,1.427 l 0,-18.037 c -2.495,0.713 -6.629,3.777 -10.407,6.632"
               style="fill:#77787b;fill-opacity:1;fill-rule:evenodd;stroke:none"
               id="path712" />
          </g>
          <g
             id="g714"
             transform="translate(165.169,222.424)">
            <path
               inkscape:connector-curvature="0"
               d="m 0,0 c -10.265,-2.852 -22.24,-3.279 -33.29,-3.992 l 0,-6.701 1.568,-0.429 C -27.445,-12.263 -5.632,-28.515 0,-33.861 l 0,-2.066 3.709,-0.927 c -1.286,2.495 -1.355,5.133 -1.355,7.627 l 0,23.878 c 0,2.497 0.069,5.063 1.355,6.988 L 0,2.567 0,0 z m -13.258,-20.245 -14.187,9.624 c -0.285,0.215 -1.356,0.784 -1.356,1.354 0,0.499 0.928,0.57 1.356,0.57 0,0 8.127,0.5 13.473,1.14 3.778,0.429 10.479,1.354 13.972,1.783 l 0,-22.955 c -3.207,1 -8.553,4.847 -13.258,8.484"
               style="fill:#77787b;fill-opacity:1;fill-rule:evenodd;stroke:none"
               id="path716" />
          </g>
          <g
             id="g718"
             transform="translate(150.129,110.007)">
            <path
               inkscape:connector-curvature="0"
               d="M 0,0 C 18.749,0 33.935,15.185 33.935,33.861 33.935,52.537 18.749,67.722 0,67.722 -18.679,67.722 -33.862,52.537 -33.862,33.861 -33.862,15.185 -18.679,0 0,0 z m 0,0.713 c -18.322,0 -33.22,14.827 -33.22,33.148 0,18.32 14.898,33.219 33.22,33.219 18.392,0 33.292,-14.899 33.292,-33.219 C 33.292,15.54 18.392,0.713 0,0.713"
               style="fill:#006469;fill-opacity:1;fill-rule:evenodd;stroke:none"
               id="path720" />
          </g>
          <g
             id="g722"
             transform="translate(150.129,114.071)">
            <path
               inkscape:connector-curvature="0"
               d="m 0,0 c -16.468,0 -29.87,13.332 -29.87,29.797 0,16.468 13.402,29.869 29.87,29.869 16.538,0 29.942,-13.401 29.942,-29.869 C 29.942,13.332 16.538,0 0,0 z m 0,-2.495 c 17.893,0 32.436,14.472 32.436,32.292 0,17.822 -14.543,32.291 -32.436,32.291 -17.823,0 -32.364,-14.469 -32.364,-32.291 0,-17.82 14.541,-32.292 32.364,-32.292"
               style="fill:#006469;fill-opacity:1;fill-rule:evenodd;stroke:none"
               id="path724" />
          </g>
          <g
             id="g726"
             transform="translate(147.917,134.458)">
            <path
               inkscape:connector-curvature="0"
               d="M 0,0 4.708,-3.278 4.635,16.537 0,14.614 0,0"
               style="fill:#006469;fill-opacity:1;fill-rule:evenodd;stroke:none"
               id="path728" />
          </g>
          <g
             id="g730"
             transform="translate(134.089,144.653)">
            <path
               inkscape:connector-curvature="0"
               d="M 0,0 4.705,-3.28 4.848,3.563 0.071,4.133 0,0"
               style="fill:#006469;fill-opacity:1;fill-rule:evenodd;stroke:none"
               id="path732" />
          </g>
          <g
             id="g734"
             transform="translate(140.861,139.591)">
            <path
               inkscape:connector-curvature="0"
               d="M 0,0 5.132,-3.919 5.132,8.98 0,8.412 0,0"
               style="fill:#006469;fill-opacity:1;fill-rule:evenodd;stroke:none"
               id="path736" />
          </g>
          <g
             id="g738"
             transform="translate(161.608,124.977)">
            <path
               inkscape:connector-curvature="0"
               d="M 0,0 4.704,-3.35 4.773,39.421 0.069,32.79 0,0"
               style="fill:#006469;fill-opacity:1;fill-rule:evenodd;stroke:none"
               id="path740" />
          </g>
          <g
             id="g742"
             transform="translate(124.179,151.78)">
            <path
               inkscape:connector-curvature="0"
               d="m 0,0 8.056,-5.631 0,3.067 L 0,0"
               style="fill:#006469;fill-opacity:1;fill-rule:evenodd;stroke:none"
               id="path744" />
          </g>
          <g
             id="g746"
             transform="translate(154.833,129.753)">
            <path
               inkscape:connector-curvature="0"
               d="m 0,0 4.848,-3.349 0,29.51 L -0.14,22.099 0,0"
               style="fill:#006469;fill-opacity:1;fill-rule:evenodd;stroke:none"
               id="path748" />
          </g>
          <g
             id="g750"
             transform="translate(175.82,186.631)">
            <path
               inkscape:connector-curvature="0"
               d="m 0,0 c -0.153,0.042 -0.28,0.07 -0.391,0.07 -0.155,0 -0.267,-0.056 -0.393,-0.224 l 0,1.596 c 0,0.168 0.028,0.364 0.21,0.378 l 6.021,0.672 c 0.21,0.028 0.448,0 0.448,0.112 0,0.126 -0.14,0.21 -0.336,0.336 L -0.196,6.763 C -0.49,6.959 -0.784,7.141 -0.784,7.491 l 0,1.498 C -0.252,8.527 0.505,8.387 1.204,8.205 2.885,7.785 4.635,7.281 6.315,7.043 6.693,6.987 7.085,6.931 7.449,6.931 c 0.238,0 0.476,0.028 0.7,0.098 l 0,-2.058 C 7.449,5.39 6.413,5.643 5.629,5.839 L 0.981,7.001 C 0.91,7.029 0.812,7.043 0.756,7.043 0.7,7.043 0.672,7.029 0.672,6.987 0.672,6.889 0.77,6.819 0.882,6.748 L 8.289,1.764 1.415,0.812 C 1.008,0.756 0.672,0.7 0.672,0.602 0.672,0.504 0.924,0.434 1.135,0.378 l 4.55,-1.148 c 0.756,-0.182 1.414,-0.308 1.904,-0.308 0.224,0 0.421,0.028 0.56,0.084 l 0,-1.667 C 7.463,-2.016 6.637,-1.666 5.447,-1.372 L 0,0"
               style="fill:#006469;fill-opacity:1;fill-rule:nonzero;stroke:none"
               id="path752" />
          </g>
          <g
             id="g754"
             transform="translate(180.889,203.438)">
            <path
               inkscape:connector-curvature="0"
               d="m 0,0 c -3.094,0 -6.077,2.367 -6.077,5.727 0,2.324 1.526,3.444 3.29,3.444 3.109,0 6.091,-2.352 6.091,-5.726 C 3.304,1.12 1.764,0 0,0 z m -2.829,7.785 c -1.33,0 -2.632,-0.63 -2.632,-2.184 0,-2.591 2.968,-4.229 5.517,-4.229 1.33,0 2.632,0.63 2.632,2.185 0,2.604 -2.968,4.228 -5.517,4.228"
               style="fill:#006469;fill-opacity:1;fill-rule:nonzero;stroke:none"
               id="path756" />
          </g>
          <g
             id="g758"
             transform="translate(176.688,228.828)">
            <path
               inkscape:connector-curvature="0"
               d="m 0,0 0,-0.042 c -0.602,-0.182 -1.26,-0.49 -1.26,-1.932 0,-2.604 2.73,-4.201 5.125,-4.201 1.512,0 2.618,0.813 2.618,2.619 0,1.204 -0.56,2.156 -1.008,2.674 L 5.559,-0.91 c 0.629,-0.154 1.946,-1.204 1.946,-3.389 0,-2.058 -1.722,-3.248 -3.584,-3.248 -3.277,0 -5.797,2.605 -5.797,5.741 0,0.812 0.112,1.372 0.112,2.31 L 0,0"
               style="fill:#006469;fill-opacity:1;fill-rule:nonzero;stroke:none"
               id="path760" />
          </g>
          <g
             id="g762"
             transform="translate(176.87,238.872)">
            <path
               inkscape:connector-curvature="0"
               d="m 0,0 c -0.448,0.112 -0.938,0.224 -1.358,0.224 -0.182,0 -0.336,-0.014 -0.477,-0.07 l 0,1.876 C -1.358,1.596 -0.63,1.414 0,1.26 L 2.184,0.714 C 2.184,0.91 2.072,1.176 1.75,1.512 L -0.7,4.131 c -0.364,0.405 -0.672,0.644 -0.868,0.7 -0.112,0.028 -0.21,0.055 -0.267,0.055 l 0,1.737 C -1.26,5.811 -0.91,5.167 -0.21,4.411 L 2.1,1.89 5.503,3.724 c 0.546,0.253 1.148,0.631 1.596,0.981 l 0,-1.372 C 7.099,3.081 6.945,2.982 6.721,2.885 L 2.912,0.938 C 2.772,0.869 2.703,0.798 2.703,0.728 2.703,0.63 2.842,0.546 3.066,0.49 l 2.199,-0.546 c 0.434,-0.112 0.924,-0.224 1.33,-0.224 0.182,0 0.35,0.028 0.504,0.084 l 0,-1.876 C 6.623,-1.652 5.894,-1.47 5.265,-1.316 L 0,0"
               style="fill:#006469;fill-opacity:1;fill-rule:nonzero;stroke:none"
               id="path764" />
          </g>
          <g
             id="g766"
             transform="translate(180.889,252.236)">
            <path
               inkscape:connector-curvature="0"
               d="m 0,0 c -3.094,0 -6.077,2.367 -6.077,5.727 0,2.324 1.526,3.444 3.29,3.444 3.109,0 6.091,-2.352 6.091,-5.726 C 3.304,1.12 1.764,0 0,0 z m -2.829,7.785 c -1.33,0 -2.632,-0.63 -2.632,-2.185 0,-2.59 2.968,-4.228 5.517,-4.228 1.33,0 2.632,0.63 2.632,2.184 0,2.605 -2.968,4.229 -5.517,4.229"
               style="fill:#006469;fill-opacity:1;fill-rule:nonzero;stroke:none"
               id="path768" />
          </g>
          <g
             id="g770"
             transform="translate(178.901,274.447)">
            <path
               inkscape:connector-curvature="0"
               d="M 0,0 C 0.028,0 0.042,0.042 0.07,0.112 0.265,1.05 0.812,1.82 1.792,1.82 c 2.422,0 3.332,-2.282 3.332,-4.228 0,-0.952 -0.056,-1.876 -0.056,-2.828 -0.602,0.602 -1.358,0.798 -2.436,1.064 l -4.663,1.162 c -0.448,0.112 -0.938,0.238 -1.358,0.238 -0.168,0 -0.336,-0.028 -0.476,-0.084 0,1.232 -0.14,2.24 -0.14,3.473 0,0.937 0.476,1.876 1.456,1.876 1.345,0 2.016,-1.261 2.464,-2.381 C -0.057,0.042 -0.028,0 0,0 z m 2.59,-2.898 c 0.7,-0.168 1.176,-0.294 1.47,-0.294 0.392,0 0.504,0.196 0.504,0.728 0,1.624 -0.938,2.926 -2.758,2.926 -1.274,0 -1.428,-1.19 -1.428,-2.576 l 0,-0.238 2.212,-0.546 z m -2.717,0.672 0,0.378 c 0,1.246 -0.49,3.025 -2.38,3.025 -0.812,0 -0.938,-0.729 -0.938,-1.709 0,-0.266 0.028,-0.56 0.056,-0.882 l 3.262,-0.812"
               style="fill:#006469;fill-opacity:1;fill-rule:nonzero;stroke:none"
               id="path772" />
          </g>
          <g
             id="g774"
             transform="translate(176.688,293.3)">
            <path
               inkscape:connector-curvature="0"
               d="m 0,0 0,-0.042 c -0.602,-0.182 -1.26,-0.49 -1.26,-1.932 0,-2.605 2.73,-4.201 5.125,-4.201 1.512,0 2.618,0.812 2.618,2.619 0,1.204 -0.56,2.156 -1.008,2.674 L 5.559,-0.91 c 0.629,-0.154 1.946,-1.204 1.946,-3.388 0,-2.059 -1.722,-3.249 -3.584,-3.249 -3.277,0 -5.797,2.605 -5.797,5.741 0,0.812 0.112,1.372 0.112,2.31 L 0,0"
               style="fill:#006469;fill-opacity:1;fill-rule:nonzero;stroke:none"
               id="path776" />
          </g>
          <g
             id="g778"
             transform="translate(176.87,303.344)">
            <path
               inkscape:connector-curvature="0"
               d="m 0,0 c -0.448,0.112 -0.938,0.224 -1.358,0.224 -0.182,0 -0.336,-0.014 -0.477,-0.07 l 0,1.876 C -1.358,1.596 -0.63,1.414 0,1.26 L 2.184,0.714 C 2.184,0.91 2.072,1.176 1.75,1.512 L -0.7,4.131 c -0.364,0.406 -0.672,0.644 -0.868,0.7 -0.112,0.028 -0.21,0.055 -0.267,0.055 l 0,1.737 C -1.26,5.811 -0.91,5.166 -0.21,4.411 L 2.1,1.891 5.503,3.725 c 0.546,0.252 1.148,0.629 1.596,0.979 l 0,-1.372 C 7.099,3.08 6.945,2.982 6.721,2.884 L 2.912,0.938 C 2.772,0.868 2.703,0.798 2.703,0.728 2.703,0.63 2.842,0.546 3.066,0.49 l 2.199,-0.546 c 0.434,-0.112 0.924,-0.224 1.33,-0.224 0.182,0 0.35,0.028 0.504,0.084 l 0,-1.876 C 6.623,-1.652 5.894,-1.47 5.265,-1.316 L 0,0"
               style="fill:#006469;fill-opacity:1;fill-rule:nonzero;stroke:none"
               id="path780" />
          </g>
          <g
             id="g782"
             transform="translate(181.757,318.556)">
            <path
               inkscape:connector-curvature="0"
               d="m 0,0 c 0.084,-0.014 0.126,-0.014 0.126,0.015 0,0.027 -0.014,0.055 -0.056,0.097 l -6.343,5.727 c -0.279,0.294 -0.448,0.602 -0.448,0.966 l 0,0.784 c 0.56,-0.448 1.204,-0.63 1.835,-0.784 L 0.378,5.488 c 0.42,-0.096 0.869,-0.21 1.274,-0.21 0.197,0 0.379,0.028 0.56,0.085 l 0,-1.905 C 1.652,3.892 1.008,4.075 0.378,4.229 l -5.097,1.273 c -0.083,0.015 -0.153,0.015 -0.153,-0.014 0,-0.027 0.028,-0.069 0.098,-0.125 l 6.986,-6.372 0,-1.12 c -0.56,0.435 -1.204,0.617 -1.834,0.77 l -5.264,1.317 c -0.434,0.112 -0.869,0.21 -1.289,0.21 -0.182,0 -0.377,-0.015 -0.546,-0.07 l 0,1.904 c 0.56,-0.448 1.204,-0.631 1.835,-0.784 L 0,0"
               style="fill:#006469;fill-opacity:1;fill-rule:nonzero;stroke:none"
               id="path784" />
          </g>
          <g
             id="g786"
             transform="translate(181.757,335.531)">
            <path
               inkscape:connector-curvature="0"
               d="m 0,0 c 0.084,-0.014 0.126,-0.014 0.126,0.015 0,0.027 -0.014,0.055 -0.056,0.097 l -6.343,5.727 c -0.279,0.294 -0.448,0.602 -0.448,0.966 l 0,0.784 C -6.161,7.141 -5.517,6.96 -4.886,6.805 L 0.378,5.489 c 0.42,-0.097 0.869,-0.21 1.274,-0.21 0.197,0 0.379,0.027 0.56,0.084 l 0,-1.904 C 1.652,3.893 1.008,4.075 0.378,4.229 l -5.097,1.273 c -0.083,0.015 -0.153,0.015 -0.153,-0.013 0,-0.028 0.028,-0.07 0.098,-0.126 l 6.986,-6.371 0,-1.12 c -0.56,0.434 -1.204,0.616 -1.834,0.77 l -5.264,1.316 c -0.434,0.112 -0.869,0.211 -1.289,0.211 -0.182,0 -0.377,-0.015 -0.546,-0.071 l 0,1.904 c 0.56,-0.448 1.204,-0.63 1.835,-0.784 L 0,0 z m -9.283,2.898 c 0.826,-0.027 1.386,0.295 1.386,1.205 0,0.979 -0.504,1.498 -1.386,1.918 l 0,0.393 c 1.26,-0.436 2.171,-1.093 2.171,-2.437 0,-1.344 -0.981,-1.68 -2.171,-1.443 l 0,0.364"
               style="fill:#006469;fill-opacity:1;fill-rule:nonzero;stroke:none"
               id="path788" />
          </g>
          <g
             id="g790"
             transform="translate(183.969,368.42)">
            <path
               inkscape:connector-curvature="0"
               d="m 0,0 -3.921,-0.574 0,-3.207 c 1.219,-0.896 2.591,-1.875 3.389,-2.072 0.182,-0.042 0.35,-0.07 0.532,-0.084 l 0,-1.75 -0.392,0.406 c -1.008,1.036 -7.029,5.376 -8.163,5.713 l -0.378,0.112 0,1.652 c 2.786,0.196 5.824,0.336 8.415,1.092 L 0,1.442 0,0 z m -7.617,-0.91 c -0.098,-0.014 -0.336,0 -0.336,-0.126 0,-0.126 0.266,-0.281 0.336,-0.323 l 3.136,-2.043 0,2.73 -3.136,-0.238"
               style="fill:#006469;fill-opacity:1;fill-rule:nonzero;stroke:none"
               id="path792" />
          </g>
          <g
             id="g794"
             transform="translate(181.729,379.025)">
            <path
               inkscape:connector-curvature="0"
               d="m 0,0 c 0.798,0.14 1.862,0.938 1.862,2.227 0,2.267 -2.016,3.584 -3.948,4.046 l 0,-0.63 c 0,-0.896 -0.127,-2.465 -0.827,-2.801 0.126,0.855 0.126,2.016 0.126,3.571 -0.307,0.042 -0.601,0.07 -0.882,0.07 -1.456,0 -2.688,-0.56 -2.688,-2.226 0,-0.883 0.574,-2.184 1.344,-2.689 L -6.287,1.315 c -0.252,0.758 -0.63,1.92 -0.63,3.179 0,2.395 1.54,3.375 3.29,3.375 2.815,0 6.091,-2.003 6.091,-5.614 0,-1.499 -0.378,-2.059 -0.882,-2.689 L 0,0"
               style="fill:#006469;fill-opacity:1;fill-rule:nonzero;stroke:none"
               id="path796" />
          </g>
          <g
             id="g798"
             transform="translate(176.87,396.799)">
            <path
               inkscape:connector-curvature="0"
               d="m 0,0 c -0.448,0.112 -0.938,0.238 -1.358,0.238 -0.168,0 -0.336,-0.029 -0.477,-0.084 0,1.12 -0.139,2.086 -0.139,3.179 0,1.455 0.938,2.114 1.918,2.114 1.946,0 3.234,-1.513 3.234,-3.318 0,-0.743 -0.139,-0.911 -0.308,-1.135 0.015,0.084 0.015,0.168 0.015,0.266 0,1.275 -0.911,2.856 -2.899,2.856 -0.672,0 -1.4,-0.335 -1.4,-1.386 l 0,-1.12 6.679,-1.667 c 0.364,-0.084 0.812,-0.182 1.232,-0.182 0.224,0 0.434,0.029 0.602,0.098 l 0,-1.932 c -0.49,0.435 -1.274,0.617 -1.834,0.756 L 0,0"
               style="fill:#006469;fill-opacity:1;fill-rule:nonzero;stroke:none"
               id="path800" />
          </g>
          <g
             id="g802"
             transform="translate(180.889,410.26)">
            <path
               inkscape:connector-curvature="0"
               d="m 0,0 c -3.094,0 -6.077,2.366 -6.077,5.727 0,2.324 1.526,3.444 3.29,3.444 3.109,0 6.091,-2.353 6.091,-5.726 C 3.304,1.12 1.764,0 0,0 z m -2.829,7.785 c -1.33,0 -2.632,-0.63 -2.632,-2.184 0,-2.591 2.968,-4.229 5.517,-4.229 1.33,0 2.632,0.63 2.632,2.184 0,2.605 -2.968,4.229 -5.517,4.229"
               style="fill:#006469;fill-opacity:1;fill-rule:nonzero;stroke:none"
               id="path804" />
          </g>
          <g
             id="g806"
             transform="translate(175.036,436.659)">
            <path
               inkscape:connector-curvature="0"
               d="M 0,0 C 0.56,-0.448 1.204,-0.63 1.835,-0.784 L 7.099,-2.1 c 0.42,-0.098 0.896,-0.211 1.274,-0.211 0.197,0 0.379,0.029 0.56,0.084 l 0,-1.904 c -0.56,0.434 -1.204,0.617 -1.834,0.771 l -6.539,1.623 0,-4.003 6.539,-1.625 c 0.42,-0.099 0.896,-0.209 1.274,-0.209 0.197,0 0.379,0.027 0.56,0.083 l 0,-1.904 c -0.56,0.434 -1.204,0.616 -1.834,0.77 l -5.264,1.316 c -0.434,0.112 -0.869,0.21 -1.289,0.21 -0.182,0 -0.377,-0.015 -0.546,-0.07 L 0,0"
               style="fill:#006469;fill-opacity:1;fill-rule:nonzero;stroke:none"
               id="path808" />
          </g>
          <g
             id="g810"
             transform="translate(180.889,444.477)">
            <path
               inkscape:connector-curvature="0"
               d="m 0,0 c -3.094,0 -6.077,2.366 -6.077,5.726 0,2.325 1.526,3.445 3.29,3.445 3.109,0 6.091,-2.353 6.091,-5.726 C 3.304,1.12 1.764,0 0,0 z m -2.829,7.784 c -1.33,0 -2.632,-0.629 -2.632,-2.184 0,-2.591 2.968,-4.229 5.517,-4.229 1.33,0 2.632,0.631 2.632,2.184 0,2.605 -2.968,4.229 -5.517,4.229"
               style="fill:#006469;fill-opacity:1;fill-rule:nonzero;stroke:none"
               id="path812" />
          </g>
          <g
             id="g814"
             transform="translate(176.87,463.552)">
            <path
               inkscape:connector-curvature="0"
               d="m 0,0 c -0.448,0.113 -0.938,0.238 -1.358,0.238 -0.168,0 -0.336,-0.029 -0.477,-0.084 0,1.12 -0.139,2.086 -0.139,3.179 0,1.455 0.938,2.114 1.918,2.114 1.946,0 3.234,-1.512 3.234,-3.319 0,-0.742 -0.139,-0.91 -0.308,-1.134 0.015,0.084 0.015,0.168 0.015,0.266 0,1.275 -0.911,2.856 -2.899,2.856 -0.672,0 -1.4,-0.335 -1.4,-1.386 l 0,-1.12 6.679,-1.667 c 0.364,-0.084 0.812,-0.182 1.232,-0.182 0.224,0 0.434,0.029 0.602,0.098 l 0,-1.931 c -0.49,0.434 -1.274,0.616 -1.834,0.756 L 0,0"
               style="fill:#006469;fill-opacity:1;fill-rule:nonzero;stroke:none"
               id="path816" />
          </g>
          <g
             id="g818"
             transform="translate(183.969,478.414)">
            <path
               inkscape:connector-curvature="0"
               d="m 0,0 c -0.476,0.421 -1.204,0.603 -1.834,0.756 l -6.399,1.596 0,-2.001 c 0,-0.322 0.042,-0.659 0.308,-1.064 l -1.008,0.531 0,7.043 c 0.602,-0.392 0.7,-1.274 0.7,-1.848 l 0,-1.399 6.399,-1.597 c 0.434,-0.112 0.924,-0.224 1.33,-0.224 0.182,0 0.35,0.029 0.504,0.084 L 0,0"
               style="fill:#006469;fill-opacity:1;fill-rule:nonzero;stroke:none"
               id="path820" />
          </g>
        </g>
      </g>
    </g>
  </g>
</svg>
