<?xml version="1.0" encoding="UTF-8"?>
<svg xmlns="http://www.w3.org/2000/svg" xmlns:xlink="http://www.w3.org/1999/xlink" width="151pt" height="27pt" viewBox="0 0 151 27" version="1.1">
<g id="surface1">
<path style=" stroke:none;fill-rule:evenodd;fill:rgb(46.666667%,47.058824%,48.235294%);fill-opacity:1;" d="M 133.4375 9.859375 C 133.832031 9.832031 134.199219 9.777344 134.539062 9.777344 C 135.949219 9.777344 136.964844 10.003906 136.542969 11.589844 C 136.0625 13.429688 134.371094 13.914062 132.847656 13.914062 L 132.367188 13.914062 Z M 130.25 16.007812 C 129.914062 17.371094 129.433594 19.152344 128.53125 20.398438 C 129.714844 20.398438 130.871094 20.457031 132.027344 20.457031 C 134.398438 20.457031 136.710938 19.664062 137.414062 16.917969 C 137.921875 15.015625 136.683594 14.367188 135.1875 13.996094 L 135.1875 13.96875 C 136.570312 13.457031 137.953125 12.722656 138.347656 11.191406 C 138.742188 9.691406 137.667969 9.09375 136.316406 9.09375 C 134.792969 9.09375 133.183594 9.265625 131.632812 9.265625 C 131.886719 9.859375 131.632812 10.765625 131.4375 11.558594 Z M 132.199219 14.535156 L 132.507812 14.535156 C 134.480469 14.535156 136.175781 14.816406 135.527344 17.199219 C 135.046875 19.070312 133.777344 19.777344 132 19.777344 C 130.84375 19.777344 130.957031 19.324219 131.492188 17.3125 L 132.199219 14.535156 "/>
<path style=" stroke:none;fill-rule:evenodd;fill:rgb(46.666667%,47.058824%,48.235294%);fill-opacity:1;" d="M 55.875 15.101562 C 55.226562 17.59375 53.535156 19.890625 50.996094 19.890625 C 48.148438 19.890625 48.148438 16.859375 48.765625 14.5625 C 49.417969 12.070312 51.109375 9.746094 53.648438 9.746094 C 56.496094 9.746094 56.46875 12.777344 55.875 15.101562 Z M 57.847656 14.59375 C 58.640625 11.503906 57.679688 8.980469 53.984375 8.980469 C 50.320312 8.980469 47.667969 11.757812 46.792969 15.046875 C 45.976562 18.164062 46.933594 20.65625 50.65625 20.65625 C 54.296875 20.65625 56.976562 17.90625 57.847656 14.59375 "/>
<path style=" stroke:none;fill-rule:evenodd;fill:rgb(46.666667%,47.058824%,48.235294%);fill-opacity:1;" d="M 72.628906 9.265625 C 72.035156 9.945312 71.839844 10.878906 71.613281 11.757812 C 71.078125 13.828125 70.402344 16.007812 70.089844 18.105469 C 69.976562 18.898438 69.835938 19.691406 70.035156 20.398438 L 67.4375 20.398438 C 68.003906 19.523438 68.339844 18.21875 68.59375 17.253906 L 70.117188 11.476562 C 70.144531 11.304688 70.203125 11.078125 70.089844 11.078125 C 69.949219 11.078125 69.863281 11.21875 69.78125 11.335938 L 63.433594 20.570312 L 62.335938 12.011719 C 62.277344 11.503906 62.25 11.078125 62.078125 11.078125 C 61.9375 11.078125 61.855469 11.390625 61.769531 11.644531 L 60.273438 17.3125 C 59.90625 18.671875 59.625 19.804688 59.851562 20.398438 L 57.765625 20.398438 L 57.988281 20.144531 C 58.863281 19.238281 59.683594 16.492188 60.160156 14.59375 L 61.320312 10.257812 C 61.429688 9.777344 61.488281 9.519531 61.121094 9.265625 L 63.320312 9.265625 C 63.519531 9.265625 63.773438 9.292969 63.773438 9.519531 L 64.390625 17.140625 C 64.421875 17.398438 64.390625 17.679688 64.535156 17.679688 C 64.703125 17.679688 64.789062 17.511719 64.957031 17.253906 L 69.921875 10.003906 C 70.175781 9.632812 70.371094 9.265625 70.824219 9.265625 L 72.628906 9.265625 "/>
<path style=" stroke:none;fill-rule:evenodd;fill:rgb(46.666667%,47.058824%,48.235294%);fill-opacity:1;" d="M 81.824219 15.101562 C 81.175781 17.59375 79.480469 19.890625 76.945312 19.890625 C 74.09375 19.890625 74.125 16.859375 74.714844 14.5625 C 75.363281 12.070312 77.054688 9.746094 79.59375 9.746094 C 82.445312 9.746094 82.445312 12.777344 81.824219 15.101562 Z M 83.796875 14.59375 C 84.617188 11.503906 83.65625 8.980469 79.933594 8.980469 C 76.292969 8.980469 73.617188 11.757812 72.742188 15.046875 C 71.953125 18.164062 72.910156 20.65625 76.605469 20.65625 C 80.273438 20.65625 82.921875 17.90625 83.796875 14.59375 "/>
<path style=" stroke:none;fill-rule:evenodd;fill:rgb(46.666667%,47.058824%,48.235294%);fill-opacity:1;" d="M 97.871094 19.691406 L 99.902344 19.691406 C 101.003906 19.691406 102.1875 19.4375 103.203125 18.699219 L 102.46875 20.289062 C 101.988281 20.34375 101.398438 20.398438 100.777344 20.398438 L 95.671875 20.398438 C 96.207031 19.804688 96.519531 18.898438 96.714844 18.105469 L 98.4375 11.558594 C 98.632812 10.765625 98.886719 9.859375 98.660156 9.265625 L 104.78125 9.265625 L 104.5 10.625 C 104.019531 10.085938 103.117188 9.972656 102.074219 9.972656 L 100.4375 9.972656 L 99.339844 14.140625 C 100.695312 14.140625 102.132812 14.140625 103.511719 13.996094 C 102.640625 15.015625 100.636719 15.015625 99.5625 15.015625 L 99.113281 15.015625 L 97.871094 19.691406 "/>
<path style=" stroke:none;fill-rule:evenodd;fill:rgb(46.666667%,47.058824%,48.235294%);fill-opacity:1;" d="M 126.273438 15.101562 C 125.625 17.59375 123.933594 19.890625 121.394531 19.890625 C 118.574219 19.890625 118.574219 16.859375 119.167969 14.5625 C 119.816406 12.070312 121.535156 9.746094 124.046875 9.746094 C 126.894531 9.746094 126.894531 12.777344 126.273438 15.101562 Z M 128.25 14.59375 C 129.066406 11.503906 128.109375 8.980469 124.414062 8.980469 C 120.746094 8.980469 118.066406 11.757812 117.222656 15.046875 C 116.402344 18.164062 117.363281 20.65625 121.054688 20.65625 C 124.722656 20.65625 127.375 17.90625 128.25 14.59375 "/>
<path style=" stroke:none;fill-rule:evenodd;fill:rgb(46.666667%,47.058824%,48.235294%);fill-opacity:1;" d="M 148.78125 15.101562 C 148.132812 17.59375 146.414062 19.890625 143.902344 19.890625 C 141.054688 19.890625 141.054688 16.859375 141.675781 14.5625 C 142.324219 12.070312 144.015625 9.746094 146.554688 9.746094 C 149.375 9.746094 149.375 12.777344 148.78125 15.101562 Z M 150.726562 14.59375 C 151.546875 11.503906 150.589844 8.980469 146.894531 8.980469 C 143.226562 8.980469 140.574219 11.757812 139.699219 15.046875 C 138.882812 18.164062 139.839844 20.65625 143.535156 20.65625 C 147.203125 20.65625 149.882812 17.90625 150.726562 14.59375 "/>
<path style=" stroke:none;fill-rule:evenodd;fill:rgb(46.666667%,47.058824%,48.235294%);fill-opacity:1;" d="M 93.667969 19.664062 C 92.765625 16.460938 92.625 12.722656 92.429688 9.292969 L 90.34375 9.292969 L 90.199219 9.773438 C 89.832031 11.136719 84.785156 17.90625 83.148438 19.664062 L 82.5 19.664062 L 82.191406 20.824219 C 82.980469 20.429688 83.796875 20.429688 84.558594 20.429688 L 91.976562 20.429688 C 92.765625 20.429688 93.558594 20.429688 94.148438 20.824219 L 94.457031 19.664062 Z M 87.351562 15.527344 L 90.34375 11.105469 C 90.425781 11.023438 90.59375 10.683594 90.765625 10.683594 C 90.933594 10.683594 90.960938 10.992188 90.960938 11.105469 C 90.960938 11.105469 91.101562 13.65625 91.300781 15.300781 C 91.441406 16.492188 91.722656 18.585938 91.863281 19.664062 L 84.726562 19.664062 C 85.039062 18.671875 86.222656 17.027344 87.351562 15.527344 "/>
<path style=" stroke:none;fill-rule:evenodd;fill:rgb(46.666667%,47.058824%,48.235294%);fill-opacity:1;" d="M 115.078125 19.664062 C 114.175781 16.460938 114.035156 12.722656 113.808594 9.292969 L 111.75 9.292969 L 111.605469 9.773438 C 111.242188 11.136719 106.191406 17.90625 104.554688 19.664062 L 103.90625 19.664062 L 103.597656 20.824219 C 104.386719 20.429688 105.207031 20.429688 105.964844 20.429688 L 113.386719 20.429688 C 114.175781 20.429688 114.964844 20.429688 115.558594 20.824219 L 115.867188 19.664062 Z M 108.761719 15.527344 L 111.75 11.105469 C 111.804688 11.023438 112.003906 10.683594 112.171875 10.683594 C 112.339844 10.683594 112.339844 10.992188 112.371094 11.105469 C 112.371094 11.105469 112.511719 13.65625 112.707031 15.300781 C 112.847656 16.492188 113.128906 18.585938 113.273438 19.664062 L 106.136719 19.664062 C 106.417969 18.671875 107.628906 17.027344 108.761719 15.527344 "/>
<path style=" stroke:none;fill-rule:evenodd;fill:rgb(46.666667%,47.058824%,48.235294%);fill-opacity:1;" d="M 44.480469 19.4375 C 43.351562 15.355469 43.183594 10.597656 42.902344 6.207031 L 40.25 6.207031 L 40.078125 6.828125 C 39.628906 8.527344 33.199219 17.199219 31.082031 19.4375 L 30.265625 19.4375 L 29.898438 20.910156 C 30.886719 20.398438 31.929688 20.371094 32.914062 20.371094 L 42.363281 20.371094 C 43.351562 20.371094 44.367188 20.398438 45.128906 20.910156 L 45.496094 19.4375 Z M 36.46875 14.167969 L 40.277344 8.527344 C 40.363281 8.414062 40.585938 7.988281 40.8125 7.988281 C 41.011719 7.988281 41.039062 8.359375 41.039062 8.527344 C 41.039062 8.527344 41.238281 11.757812 41.488281 13.882812 C 41.660156 15.386719 42.027344 18.046875 42.195312 19.4375 L 33.113281 19.4375 C 33.507812 18.164062 35.03125 16.039062 36.46875 14.167969 "/>
<path style=" stroke:none;fill-rule:evenodd;fill:rgb(0%,39.215686%,41.176471%);fill-opacity:1;" d="M 0 13.457031 C 0 20.910156 6.007812 26.945312 13.398438 26.945312 C 20.789062 26.945312 26.796875 20.910156 26.796875 13.457031 C 26.796875 6.035156 20.789062 0 13.398438 0 C 6.007812 0 0 6.035156 0 13.457031 Z M 0.28125 13.457031 C 0.28125 6.175781 6.148438 0.253906 13.398438 0.253906 C 20.644531 0.253906 26.542969 6.175781 26.542969 13.457031 C 26.542969 20.769531 20.644531 26.691406 13.398438 26.691406 C 6.148438 26.691406 0.28125 20.769531 0.28125 13.457031 "/>
<path style=" stroke:none;fill-rule:evenodd;fill:rgb(0%,39.215686%,41.176471%);fill-opacity:1;" d="M 1.609375 13.457031 C 1.609375 6.914062 6.882812 1.585938 13.398438 1.585938 C 19.914062 1.585938 25.214844 6.914062 25.214844 13.457031 C 25.214844 20.03125 19.914062 25.359375 13.398438 25.359375 C 6.882812 25.359375 1.609375 20.03125 1.609375 13.457031 Z M 0.621094 13.457031 C 0.621094 20.570312 6.347656 26.351562 13.398438 26.351562 C 20.449219 26.351562 26.175781 20.570312 26.175781 13.457031 C 26.175781 6.375 20.449219 0.59375 13.398438 0.59375 C 6.347656 0.59375 0.621094 6.375 0.621094 13.457031 "/>
<path style=" stroke:none;fill-rule:evenodd;fill:rgb(0%,39.215686%,41.176471%);fill-opacity:1;" d="M 9.675781 12.578125 L 8.378906 14.449219 L 16.21875 14.421875 L 15.457031 12.578125 L 9.675781 12.578125 "/>
<path style=" stroke:none;fill-rule:evenodd;fill:rgb(0%,39.215686%,41.176471%);fill-opacity:1;" d="M 13.707031 7.082031 L 12.410156 8.953125 L 15.117188 9.011719 L 15.34375 7.113281 L 13.707031 7.082031 "/>
<path style=" stroke:none;fill-rule:evenodd;fill:rgb(0%,39.215686%,41.176471%);fill-opacity:1;" d="M 11.707031 9.773438 L 10.15625 11.816406 L 15.257812 11.816406 L 15.035156 9.773438 L 11.707031 9.773438 "/>
<path style=" stroke:none;fill-rule:evenodd;fill:rgb(0%,39.215686%,41.176471%);fill-opacity:1;" d="M 5.921875 18.019531 L 4.597656 19.890625 L 21.519531 19.917969 L 18.898438 18.050781 L 5.921875 18.019531 "/>
<path style=" stroke:none;fill-rule:evenodd;fill:rgb(0%,39.215686%,41.176471%);fill-opacity:1;" d="M 16.527344 3.144531 L 14.300781 6.347656 L 15.515625 6.347656 L 16.527344 3.144531 "/>
<path style=" stroke:none;fill-rule:evenodd;fill:rgb(0%,39.215686%,41.176471%);fill-opacity:1;" d="M 7.8125 15.328125 L 6.488281 17.253906 L 18.164062 17.253906 L 16.558594 15.273438 L 7.8125 15.328125 "/>
<path style=" stroke:none;fill-rule:nonzero;fill:rgb(0%,39.215686%,41.176471%);fill-opacity:1;" d="M 30.316406 23.671875 C 30.335938 23.609375 30.34375 23.558594 30.34375 23.515625 C 30.34375 23.453125 30.324219 23.410156 30.257812 23.359375 L 30.886719 23.359375 C 30.953125 23.359375 31.03125 23.371094 31.039062 23.441406 L 31.304688 25.835938 C 31.316406 25.917969 31.304688 26.011719 31.347656 26.011719 C 31.398438 26.011719 31.429688 25.957031 31.480469 25.878906 L 32.992188 23.59375 C 33.070312 23.476562 33.144531 23.359375 33.28125 23.359375 L 33.875 23.359375 C 33.691406 23.570312 33.636719 23.871094 33.5625 24.148438 C 33.398438 24.816406 33.199219 25.511719 33.105469 26.179688 C 33.082031 26.332031 33.058594 26.484375 33.058594 26.632812 C 33.058594 26.726562 33.070312 26.820312 33.097656 26.910156 L 32.285156 26.910156 C 32.449219 26.632812 32.550781 26.21875 32.628906 25.90625 L 33.085938 24.058594 C 33.097656 24.03125 33.105469 23.992188 33.105469 23.972656 C 33.105469 23.949219 33.097656 23.9375 33.082031 23.9375 C 33.042969 23.9375 33.015625 23.976562 32.988281 24.019531 L 31.015625 26.964844 L 30.640625 24.234375 C 30.617188 24.070312 30.59375 23.9375 30.554688 23.9375 C 30.515625 23.9375 30.488281 24.039062 30.46875 24.121094 L 30.011719 25.929688 C 29.941406 26.230469 29.890625 26.492188 29.890625 26.6875 C 29.890625 26.777344 29.902344 26.855469 29.925781 26.910156 L 29.265625 26.910156 C 29.519531 26.636719 29.660156 26.308594 29.773438 25.835938 L 30.316406 23.671875 "/>
<path style=" stroke:none;fill-rule:nonzero;fill:rgb(0%,39.215686%,41.176471%);fill-opacity:1;" d="M 36.96875 25.683594 C 36.96875 24.457031 37.902344 23.269531 39.234375 23.269531 C 40.152344 23.269531 40.597656 23.875 40.597656 24.578125 C 40.597656 25.8125 39.664062 27 38.332031 27 C 37.410156 27 36.96875 26.386719 36.96875 25.683594 Z M 40.046875 24.558594 C 40.046875 24.03125 39.796875 23.515625 39.183594 23.515625 C 38.160156 23.515625 37.511719 24.695312 37.511719 25.707031 C 37.511719 26.234375 37.761719 26.753906 38.375 26.753906 C 39.40625 26.753906 40.046875 25.574219 40.046875 24.558594 "/>
<path style=" stroke:none;fill-rule:nonzero;fill:rgb(0%,39.215686%,41.176471%);fill-opacity:1;" d="M 47.015625 24.015625 L 46.996094 24.015625 C 46.925781 23.777344 46.804688 23.515625 46.234375 23.515625 C 45.203125 23.515625 44.570312 24.597656 44.570312 25.550781 C 44.570312 26.152344 44.890625 26.59375 45.605469 26.59375 C 46.082031 26.59375 46.460938 26.371094 46.664062 26.191406 L 46.652344 26.226562 C 46.59375 26.476562 46.175781 27 45.3125 27 C 44.5 27 44.027344 26.3125 44.027344 25.574219 C 44.027344 24.269531 45.058594 23.269531 46.300781 23.269531 C 46.621094 23.269531 46.84375 23.3125 47.214844 23.3125 L 47.015625 24.015625 "/>
<path style=" stroke:none;fill-rule:nonzero;fill:rgb(0%,39.215686%,41.176471%);fill-opacity:1;" d="M 50.988281 24.085938 C 51.03125 23.910156 51.078125 23.714844 51.078125 23.546875 C 51.078125 23.476562 51.070312 23.414062 51.046875 23.359375 L 51.792969 23.359375 C 51.621094 23.546875 51.546875 23.835938 51.488281 24.085938 L 51.269531 24.957031 C 51.347656 24.957031 51.453125 24.910156 51.585938 24.78125 L 52.621094 23.808594 C 52.78125 23.664062 52.878906 23.542969 52.898438 23.464844 C 52.910156 23.417969 52.921875 23.382812 52.921875 23.359375 L 53.609375 23.359375 C 53.285156 23.585938 53.03125 23.726562 52.734375 24.003906 L 51.734375 24.921875 L 52.460938 26.273438 C 52.5625 26.492188 52.710938 26.730469 52.847656 26.910156 L 52.304688 26.910156 C 52.207031 26.910156 52.167969 26.847656 52.128906 26.757812 L 51.359375 25.246094 C 51.332031 25.1875 51.304688 25.160156 51.277344 25.160156 C 51.238281 25.160156 51.203125 25.21875 51.183594 25.304688 L 50.964844 26.179688 C 50.921875 26.351562 50.878906 26.546875 50.878906 26.707031 C 50.878906 26.78125 50.886719 26.847656 50.910156 26.910156 L 50.167969 26.910156 C 50.335938 26.71875 50.40625 26.429688 50.46875 26.179688 L 50.988281 24.085938 "/>
<path style=" stroke:none;fill-rule:nonzero;fill:rgb(0%,39.215686%,41.176471%);fill-opacity:1;" d="M 56.277344 25.683594 C 56.277344 24.457031 57.210938 23.269531 58.542969 23.269531 C 59.460938 23.269531 59.902344 23.875 59.902344 24.578125 C 59.902344 25.8125 58.972656 27 57.640625 27 C 56.71875 27 56.277344 26.386719 56.277344 25.683594 Z M 59.355469 24.558594 C 59.355469 24.03125 59.105469 23.515625 58.492188 23.515625 C 57.464844 23.515625 56.820312 24.695312 56.820312 25.707031 C 56.820312 26.234375 57.066406 26.753906 57.683594 26.753906 C 58.714844 26.753906 59.355469 25.574219 59.355469 24.558594 "/>
<path style=" stroke:none;fill-rule:nonzero;fill:rgb(0%,39.215686%,41.176471%);fill-opacity:1;" d="M 65.0625 24.894531 C 65.0625 24.90625 65.082031 24.910156 65.109375 24.921875 C 65.480469 25 65.785156 25.21875 65.785156 25.605469 C 65.785156 26.570312 64.882812 26.929688 64.109375 26.929688 C 63.734375 26.929688 63.367188 26.910156 62.992188 26.910156 C 63.230469 26.667969 63.308594 26.371094 63.414062 25.941406 L 63.871094 24.085938 C 63.917969 23.910156 63.96875 23.714844 63.96875 23.546875 C 63.96875 23.480469 63.957031 23.414062 63.933594 23.359375 C 64.421875 23.359375 64.820312 23.304688 65.308594 23.304688 C 65.679688 23.304688 66.050781 23.492188 66.050781 23.882812 C 66.050781 24.417969 65.550781 24.683594 65.109375 24.859375 C 65.082031 24.871094 65.0625 24.882812 65.0625 24.894531 Z M 63.917969 25.925781 C 63.851562 26.203125 63.800781 26.390625 63.800781 26.507812 C 63.800781 26.664062 63.878906 26.707031 64.089844 26.707031 C 64.730469 26.707031 65.246094 26.335938 65.246094 25.613281 C 65.246094 25.105469 64.777344 25.046875 64.226562 25.046875 L 64.132812 25.046875 Z M 64.183594 24.84375 L 64.332031 24.84375 C 64.824219 24.84375 65.53125 24.648438 65.53125 23.898438 C 65.53125 23.574219 65.242188 23.527344 64.851562 23.527344 C 64.75 23.527344 64.632812 23.535156 64.503906 23.546875 L 64.183594 24.84375 "/>
<path style=" stroke:none;fill-rule:nonzero;fill:rgb(0%,39.215686%,41.176471%);fill-opacity:1;" d="M 72.523438 24.015625 L 72.507812 24.015625 C 72.433594 23.777344 72.3125 23.515625 71.742188 23.515625 C 70.710938 23.515625 70.082031 24.597656 70.082031 25.550781 C 70.082031 26.152344 70.402344 26.59375 71.117188 26.59375 C 71.59375 26.59375 71.96875 26.371094 72.175781 26.191406 L 72.164062 26.226562 C 72.101562 26.476562 71.6875 27 70.824219 27 C 70.007812 27 69.539062 26.3125 69.539062 25.574219 C 69.539062 24.269531 70.566406 23.269531 71.808594 23.269531 C 72.128906 23.269531 72.351562 23.3125 72.722656 23.3125 L 72.523438 24.015625 "/>
<path style=" stroke:none;fill-rule:nonzero;fill:rgb(0%,39.215686%,41.176471%);fill-opacity:1;" d="M 76.496094 24.085938 C 76.542969 23.910156 76.585938 23.714844 76.585938 23.546875 C 76.585938 23.476562 76.582031 23.414062 76.558594 23.359375 L 77.300781 23.359375 C 77.128906 23.546875 77.058594 23.835938 76.996094 24.085938 L 76.78125 24.957031 C 76.859375 24.957031 76.960938 24.910156 77.09375 24.78125 L 78.132812 23.808594 C 78.292969 23.664062 78.386719 23.542969 78.410156 23.464844 C 78.421875 23.417969 78.429688 23.382812 78.429688 23.359375 L 79.117188 23.359375 C 78.796875 23.585938 78.542969 23.726562 78.242188 24.003906 L 77.246094 24.921875 L 77.972656 26.273438 C 78.070312 26.492188 78.21875 26.730469 78.359375 26.910156 L 77.816406 26.910156 C 77.714844 26.910156 77.675781 26.847656 77.636719 26.757812 L 76.867188 25.246094 C 76.839844 25.1875 76.8125 25.160156 76.785156 25.160156 C 76.746094 25.160156 76.714844 25.21875 76.691406 25.304688 L 76.476562 26.179688 C 76.429688 26.351562 76.386719 26.546875 76.386719 26.707031 C 76.386719 26.78125 76.398438 26.847656 76.417969 26.910156 L 75.675781 26.910156 C 75.84375 26.71875 75.914062 26.429688 75.976562 26.179688 L 76.496094 24.085938 "/>
<path style=" stroke:none;fill-rule:nonzero;fill:rgb(0%,39.215686%,41.176471%);fill-opacity:1;" d="M 82.515625 26.03125 C 82.511719 26.0625 82.511719 26.078125 82.523438 26.078125 C 82.53125 26.078125 82.542969 26.074219 82.5625 26.058594 L 84.828125 23.535156 C 84.941406 23.425781 85.066406 23.359375 85.207031 23.359375 L 85.519531 23.359375 C 85.34375 23.582031 85.269531 23.835938 85.207031 24.089844 L 84.6875 26.179688 C 84.648438 26.347656 84.605469 26.527344 84.605469 26.6875 C 84.605469 26.765625 84.617188 26.835938 84.636719 26.910156 L 83.882812 26.910156 C 84.054688 26.6875 84.128906 26.429688 84.191406 26.179688 L 84.691406 24.15625 C 84.699219 24.121094 84.699219 24.09375 84.6875 24.09375 C 84.675781 24.09375 84.660156 24.105469 84.636719 24.132812 L 82.117188 26.910156 L 81.675781 26.910156 C 81.847656 26.6875 81.917969 26.429688 81.980469 26.179688 L 82.5 24.089844 C 82.542969 23.914062 82.582031 23.742188 82.582031 23.574219 C 82.582031 23.503906 82.578125 23.425781 82.554688 23.359375 L 83.308594 23.359375 C 83.132812 23.582031 83.058594 23.835938 83 24.089844 L 82.515625 26.03125 "/>
<path style=" stroke:none;fill-rule:nonzero;fill:rgb(0%,39.215686%,41.176471%);fill-opacity:1;" d="M 89.234375 26.03125 C 89.226562 26.0625 89.226562 26.078125 89.238281 26.078125 C 89.25 26.078125 89.261719 26.074219 89.277344 26.058594 L 91.542969 23.535156 C 91.660156 23.425781 91.78125 23.359375 91.925781 23.359375 L 92.234375 23.359375 C 92.058594 23.582031 91.988281 23.835938 91.925781 24.089844 L 91.40625 26.179688 C 91.367188 26.347656 91.320312 26.527344 91.320312 26.6875 C 91.320312 26.765625 91.332031 26.835938 91.355469 26.910156 L 90.601562 26.910156 C 90.773438 26.6875 90.84375 26.429688 90.90625 26.179688 L 91.410156 24.15625 C 91.414062 24.121094 91.414062 24.09375 91.40625 24.09375 C 91.394531 24.09375 91.378906 24.105469 91.355469 24.132812 L 88.835938 26.910156 L 88.390625 26.910156 C 88.5625 26.6875 88.632812 26.429688 88.695312 26.179688 L 89.214844 24.089844 C 89.261719 23.914062 89.300781 23.742188 89.300781 23.574219 C 89.300781 23.503906 89.292969 23.425781 89.273438 23.359375 L 90.023438 23.359375 C 89.847656 23.582031 89.777344 23.835938 89.714844 24.089844 Z M 90.378906 22.339844 C 90.367188 22.667969 90.496094 22.890625 90.855469 22.890625 C 91.242188 22.890625 91.449219 22.691406 91.613281 22.339844 L 91.769531 22.339844 C 91.597656 22.839844 91.339844 23.203125 90.804688 23.203125 C 90.273438 23.203125 90.140625 22.8125 90.234375 22.339844 L 90.378906 22.339844 "/>
<path style=" stroke:none;fill-rule:nonzero;fill:rgb(0%,39.215686%,41.176471%);fill-opacity:1;" d="M 102.246094 26.910156 L 102.019531 25.351562 L 100.75 25.351562 C 100.394531 25.835938 100.007812 26.378906 99.929688 26.699219 C 99.914062 26.769531 99.902344 26.835938 99.898438 26.910156 L 99.203125 26.910156 L 99.363281 26.753906 C 99.773438 26.351562 101.492188 23.960938 101.625 23.507812 L 101.667969 23.359375 L 102.324219 23.359375 C 102.402344 24.464844 102.457031 25.671875 102.753906 26.703125 L 102.816406 26.910156 Z M 101.886719 23.882812 C 101.878906 23.84375 101.886719 23.75 101.835938 23.75 C 101.785156 23.75 101.726562 23.855469 101.707031 23.882812 L 100.898438 25.128906 L 101.980469 25.128906 L 101.886719 23.882812 "/>
<path style=" stroke:none;fill-rule:nonzero;fill:rgb(0%,39.215686%,41.176471%);fill-opacity:1;" d="M 106.441406 26.019531 C 106.496094 26.335938 106.8125 26.757812 107.324219 26.757812 C 108.21875 26.757812 108.742188 25.957031 108.925781 25.191406 L 108.675781 25.191406 C 108.320312 25.191406 107.699219 25.140625 107.566406 24.859375 C 107.90625 24.910156 108.363281 24.910156 108.980469 24.910156 C 108.996094 24.789062 109.007812 24.671875 109.007812 24.558594 C 109.007812 23.980469 108.785156 23.492188 108.125 23.492188 C 107.777344 23.492188 107.261719 23.71875 107.0625 24.027344 L 106.960938 23.519531 C 107.261719 23.417969 107.722656 23.269531 108.21875 23.269531 C 109.167969 23.269531 109.554688 23.882812 109.554688 24.578125 C 109.554688 25.695312 108.761719 27 107.335938 27 C 106.742188 27 106.519531 26.847656 106.269531 26.648438 L 106.441406 26.019531 "/>
<path style=" stroke:none;fill-rule:nonzero;fill:rgb(0%,39.215686%,41.176471%);fill-opacity:1;" d="M 113.476562 24.085938 C 113.519531 23.910156 113.570312 23.714844 113.570312 23.546875 C 113.570312 23.480469 113.558594 23.414062 113.535156 23.359375 C 113.980469 23.359375 114.359375 23.304688 114.792969 23.304688 C 115.371094 23.304688 115.628906 23.675781 115.628906 24.066406 C 115.628906 24.839844 115.03125 25.351562 114.316406 25.351562 C 114.023438 25.351562 113.957031 25.296875 113.867188 25.226562 C 113.902344 25.234375 113.933594 25.234375 113.972656 25.234375 C 114.476562 25.234375 115.101562 24.871094 115.101562 24.082031 C 115.101562 23.816406 114.972656 23.527344 114.554688 23.527344 L 114.113281 23.527344 L 113.453125 26.179688 C 113.417969 26.324219 113.378906 26.503906 113.378906 26.667969 C 113.378906 26.757812 113.390625 26.84375 113.417969 26.910156 L 112.65625 26.910156 C 112.828125 26.714844 112.898438 26.402344 112.953125 26.179688 L 113.476562 24.085938 "/>
<path style=" stroke:none;fill-rule:nonzero;fill:rgb(0%,39.215686%,41.176471%);fill-opacity:1;" d="M 118.800781 25.683594 C 118.800781 24.457031 119.738281 23.269531 121.066406 23.269531 C 121.984375 23.269531 122.429688 23.875 122.429688 24.578125 C 122.429688 25.8125 121.5 27 120.164062 27 C 119.242188 27 118.800781 26.386719 118.800781 25.683594 Z M 121.882812 24.558594 C 121.882812 24.03125 121.632812 23.515625 121.015625 23.515625 C 119.992188 23.515625 119.34375 24.695312 119.34375 25.707031 C 119.34375 26.234375 119.59375 26.753906 120.207031 26.753906 C 121.238281 26.753906 121.882812 25.574219 121.882812 24.558594 "/>
<path style=" stroke:none;fill-rule:nonzero;fill:rgb(0%,39.215686%,41.176471%);fill-opacity:1;" d="M 129.246094 23.359375 C 129.070312 23.582031 128.996094 23.835938 128.9375 24.089844 L 128.414062 26.179688 C 128.375 26.347656 128.332031 26.535156 128.332031 26.6875 C 128.332031 26.765625 128.34375 26.835938 128.363281 26.910156 L 127.613281 26.910156 C 127.785156 26.6875 127.855469 26.429688 127.917969 26.179688 L 128.558594 23.582031 L 126.976562 23.582031 L 126.332031 26.179688 C 126.292969 26.347656 126.25 26.535156 126.25 26.6875 C 126.25 26.765625 126.261719 26.835938 126.28125 26.910156 L 125.527344 26.910156 C 125.699219 26.6875 125.773438 26.429688 125.832031 26.179688 L 126.355469 24.089844 C 126.398438 23.914062 126.4375 23.742188 126.4375 23.574219 C 126.4375 23.503906 126.429688 23.425781 126.410156 23.359375 L 129.246094 23.359375 "/>
<path style=" stroke:none;fill-rule:nonzero;fill:rgb(0%,39.215686%,41.176471%);fill-opacity:1;" d="M 132.339844 25.683594 C 132.339844 24.457031 133.277344 23.269531 134.605469 23.269531 C 135.523438 23.269531 135.96875 23.875 135.96875 24.578125 C 135.96875 25.8125 135.035156 27 133.703125 27 C 132.78125 27 132.339844 26.386719 132.339844 25.683594 Z M 135.417969 24.558594 C 135.417969 24.03125 135.171875 23.515625 134.554688 23.515625 C 133.53125 23.515625 132.882812 24.695312 132.882812 25.707031 C 132.882812 26.234375 133.132812 26.753906 133.746094 26.753906 C 134.777344 26.753906 135.417969 25.574219 135.417969 24.558594 "/>
<path style=" stroke:none;fill-rule:nonzero;fill:rgb(0%,39.215686%,41.176471%);fill-opacity:1;" d="M 139.886719 24.085938 C 139.929688 23.910156 139.980469 23.714844 139.980469 23.546875 C 139.980469 23.480469 139.96875 23.414062 139.949219 23.359375 C 140.390625 23.359375 140.773438 23.304688 141.207031 23.304688 C 141.78125 23.304688 142.042969 23.675781 142.042969 24.066406 C 142.042969 24.839844 141.445312 25.351562 140.730469 25.351562 C 140.433594 25.351562 140.367188 25.296875 140.28125 25.226562 C 140.3125 25.234375 140.347656 25.234375 140.386719 25.234375 C 140.890625 25.234375 141.515625 24.871094 141.515625 24.082031 C 141.515625 23.816406 141.382812 23.527344 140.96875 23.527344 L 140.523438 23.527344 L 139.863281 26.179688 C 139.832031 26.324219 139.792969 26.503906 139.792969 26.667969 C 139.792969 26.757812 139.804688 26.84375 139.832031 26.910156 L 139.066406 26.910156 C 139.238281 26.714844 139.3125 26.402344 139.367188 26.179688 L 139.886719 24.085938 "/>
<path style=" stroke:none;fill-rule:nonzero;fill:rgb(0%,39.215686%,41.176471%);fill-opacity:1;" d="M 145.765625 26.910156 C 145.933594 26.71875 146.003906 26.429688 146.066406 26.179688 L 146.699219 23.636719 L 145.90625 23.636719 C 145.777344 23.636719 145.644531 23.652344 145.484375 23.757812 L 145.695312 23.359375 L 148.480469 23.359375 C 148.328125 23.597656 147.976562 23.636719 147.75 23.636719 L 147.195312 23.636719 L 146.566406 26.179688 C 146.519531 26.351562 146.476562 26.546875 146.476562 26.707031 C 146.476562 26.78125 146.488281 26.847656 146.511719 26.910156 L 145.765625 26.910156 "/>
</g>
</svg>
